<svg width="573" height="138" viewBox="0 0 573 138" fill="none" xmlns="http://www.w3.org/2000/svg">
<g clip-path="url(#clip0_512_220)">
<path d="M405.748 40.229C404.942 38.9451 404.105 37.6852 403.23 36.4531C391.575 20.0613 372.172 8.83893 353.315 3.75634C345.054 1.5263 336.573 0.359899 328.106 0.0619078C272.572 -1.86969 252.171 41.9593 234.279 53.2597C216.386 64.5606 188.929 83.8627 192.375 124.41C194.989 155.239 213.311 184.718 246.775 198.132C250.46 199.614 254.333 200.9 258.388 201.968C265.931 203.954 274.106 205.201 282.915 205.576C308.214 206.655 328.757 200.818 348.851 186.117C353.522 182.7 358.168 178.846 364.23 178.424C368.636 178.117 372.813 179.632 368.208 183.708C362.795 188.499 369.04 197.92 382.781 191.374C405.729 180.442 415.17 156.854 419.617 132.869C425.076 103.428 422.43 66.8154 405.748 40.229Z" fill="#C0CFB8"/>
</g>
<defs>
<clipPath id="clip0_512_220">
<rect width="572" height="138" fill="white" />
</clipPath>
</defs>
</svg>
