<svg width="1225" height="1097" viewBox="0 0 1225 1097" fill="none" xmlns="http://www.w3.org/2000/svg">
<path d="M1137.51 214.54C1133.22 207.692 1128.76 200.973 1124.1 194.404C1062.06 106.986 958.762 47.1378 858.374 20.0325C814.395 8.1397 769.243 1.91933 724.169 0.330152C428.522 -9.97101 319.911 223.767 224.658 284.032C129.405 344.3 -16.7689 447.237 1.57328 663.475C15.4915 827.887 113.036 985.094 291.183 1056.63C310.805 1064.54 331.422 1071.4 353.009 1077.09C393.166 1087.68 436.687 1094.33 483.582 1096.33C618.27 1102.09 727.633 1070.95 834.61 992.559C859.475 974.337 884.209 953.781 916.48 951.53C939.936 949.894 962.175 957.974 937.656 979.709C908.839 1005.26 942.09 1055.5 1015.24 1020.59C1137.41 962.29 1187.67 836.497 1211.35 708.584C1240.41 551.577 1226.32 356.324 1137.51 214.54Z" fill="#C0CFB8"/>
</svg>
