<svg width="1280" height="553" viewBox="0 0 1280 553" fill="none" xmlns="http://www.w3.org/2000/svg">
<path d="M1633 632L1044 717.5L1123.5 456L1074 292.5L1250 265L1466.5 292.5L1633 632Z" fill="#263238" fill-opacity="0.3" stroke="#263238" stroke-opacity="0.1" stroke-miterlimit="10" stroke-linecap="round" stroke-linejoin="round"/>
<path d="M1211 147L1286.51 1L1348 1.00001L1211 147Z" fill="white" fill-opacity="0.12" stroke="#263238" stroke-opacity="0.5" stroke-miterlimit="10" stroke-linecap="round" stroke-linejoin="round"/>
<g opacity="0.05">
<path d="M898.323 198.5L883.992 198.75L884.71 239.902L899.041 239.652L898.323 198.5Z" fill="#C7C7C7"/>
<path d="M912.654 198.25L898.323 198.5L899.041 239.652L913.372 239.402L912.654 198.25Z" fill="#263238"/>
<path d="M926.985 198L912.654 198.25L913.372 239.402L927.703 239.152L926.985 198Z" fill="#C7C7C7"/>
</g>
<g opacity="0.05">
<path d="M843.938 199.173L831.996 199.381L832.714 240.533L844.656 240.325L843.938 199.173Z" fill="#919191"/>
<path d="M855.88 198.964L843.938 199.173L844.656 240.325L856.598 240.116L855.88 198.964Z" fill="#263238"/>
<path d="M867.822 198.756L855.88 198.964L856.598 240.116L868.541 239.908L867.822 198.756Z" fill="#919191"/>
</g>
<g opacity="0.05">
<path d="M791.942 199.821L780 200.03L780.718 241.182L792.66 240.973L791.942 199.821Z" fill="#919191"/>
<path d="M803.884 199.613L791.942 199.821L792.66 240.973L804.602 240.765L803.884 199.613Z" fill="#263238"/>
<path d="M815.826 199.404L803.884 199.613L804.602 240.765L816.544 240.556L815.826 199.404Z" fill="#919191"/>
</g>
<g opacity="0.05">
<path d="M957.331 198.764L943 199.015L943.718 240.167L958.049 239.916L957.331 198.764Z" fill="#C7C7C7"/>
<path d="M971.661 198.514L957.331 198.764L958.049 239.916L972.38 239.666L971.661 198.514Z" fill="#263238"/>
<path d="M985.992 198.264L971.662 198.514L972.38 239.666L986.711 239.416L985.992 198.264Z" fill="#C7C7C7"/>
</g>
<g opacity="0.05">
<path d="M1056.78 213.513L1047.23 213.68L1047.67 238.828L1057.22 238.662L1056.78 213.513Z" fill="#C7C7C7"/>
<path d="M1066.34 213.347L1056.78 213.513L1057.22 238.662L1066.78 238.495L1066.34 213.347Z" fill="#263238"/>
<path d="M1075.89 213.18L1066.34 213.347L1066.78 238.495L1076.33 238.328L1075.89 213.18Z" fill="#C7C7C7"/>
</g>
<path d="M-104.387 442H85.2261L285.613 515L181.613 643H-8L-104.387 442Z" fill="#92E3A9" fill-opacity="0.1"/>
<path d="M932.777 289.609H872V328.108H932.777V289.609Z" fill="#40B5A8" fill-opacity="0.16"/>
<path d="M932.777 289.609L974.776 262L932.777 328.108V289.609Z" fill="#C8A21C" fill-opacity="0.12"/>
<path d="M676.5 597H781.17L853.5 489H748.847L624 384.5L676.5 597Z" fill="#92E3A9" fill-opacity="0.1"/>
<g opacity="0.05">
<path d="M1011.79 214.074L1002.23 214.241L1002.67 239.389L1012.23 239.223L1011.79 214.074Z" fill="#919191"/>
<path d="M1021.34 213.908L1011.79 214.074L1012.23 239.223L1021.78 239.056L1021.34 213.908Z" fill="#263238"/>
<path d="M1030.9 213.741L1021.34 213.908L1021.78 239.056L1031.33 238.889L1030.9 213.741Z" fill="#919191"/>
</g>
<g opacity="0.05">
<path d="M1112.94 200.736L1107.59 200.829L1108.25 238.189L1113.45 229.835L1112.94 200.736Z" fill="white"/>
<path d="M1107.84 200.825L1092.05 201.101L1092.7 238.46L1108.49 238.184L1107.84 200.825Z" fill="#C7C7C7"/>
</g>
<path d="M460.788 512H424V604.547H460.788V512Z" fill="#263238" fill-opacity="0.3" stroke="#263238" stroke-opacity="0.2" stroke-miterlimit="10" stroke-linecap="round" stroke-linejoin="round"/>
</svg>
