<svg width="41" height="1" viewBox="0 0 41 38" fill="none" xmlns="http://www.w3.org/2000/svg">
<path d="M26.8076 27.7326C26.8076 27.7326 33.5997 26.1076 35.6357 26.7567C37.6731 27.4073 34.2852 29.711 34.2852 29.711C34.2852 29.711 35.9755 30.6573 36.9949 32.9314C38.0129 35.2069 33.6114 34.2269 33.6114 34.2269C33.6114 34.2269 34.9575 35.8575 33.5997 37.1572C32.2418 38.4569 26.1294 31.957 26.1294 31.957C26.1294 31.957 21.7146 34.5578 17.6397 34.2325C13.5647 33.9072 11.1874 32.9328 8.47175 29.0323C5.75609 25.1317 3.71711 23.1815 3.71711 23.1815L1 22.2071L5.07494 19.9315C5.07494 19.9315 8.47024 17.0068 11.8656 17.3307C15.2609 17.656 16.6201 18.6304 16.6201 18.6304C16.6201 18.6304 18.6576 13.4302 21.7131 11.4799C24.7686 9.52964 34.2778 6.92884 37.3333 5.30385C40.3888 3.67887 39.7106 6.27969 38.6911 7.90467C37.6717 9.52966 34.6162 10.8293 33.2584 11.4799C31.9005 12.1305 40.3888 12.4557 39.031 14.0807C37.6731 15.7057 32.5787 16.3563 32.5787 16.3563C32.5787 16.3563 37.3333 17.9813 36.3138 19.281C35.2944 20.5807 31.2209 20.5807 31.2209 20.5807C31.2209 20.5807 32.5787 23.8306 30.5412 23.8306C28.5037 23.8306 28.5037 23.8306 28.5037 23.8306C28.5037 23.8306 29.5247 28.3831 26.8076 27.7326Z" fill="#92E3A9" fill-opacity="1" stroke="#263238" stroke-opacity="0.5" stroke-miterlimit="10" stroke-linecap="round" stroke-linejoin="round"/>
<path d="M16.6201 18.6318C16.6201 18.6318 13.9031 13.4316 15.2624 10.1816C16.6202 6.93164 29.1849 -1.51995 28.8451 1.73142C28.5052 4.98139 25.1099 6.93164 25.1099 6.93164C25.1099 6.93164 30.2028 5.30665 30.2028 6.60636C30.2028 7.90606 30.2028 7.90607 30.2028 7.90607C30.2028 7.90607 24.4302 9.20578 21.7131 11.4813C18.9975 13.7555 16.6201 18.6318 16.6201 18.6318Z" fill="#263238" fill-opacity="1" stroke="#263238" stroke-opacity="0.5" stroke-miterlimit="10" stroke-linecap="round" stroke-linejoin="round"/>
<path d="M8.6718 22.131C9.22996 22.131 9.68246 21.6979 9.68246 21.1636C9.68246 20.6293 9.22996 20.1962 8.6718 20.1962C8.11363 20.1962 7.66113 20.6293 7.66113 21.1636C7.66113 21.6979 8.11363 22.131 8.6718 22.131Z" fill="#263238" fill-opacity="0.5"/>
<path d="M22.312 31.098C21.7015 33.0694 18.4636 33.8875 15.0801 32.9272C11.6965 31.9668 9.45018 29.5899 10.0622 27.6185C10.6727 25.6471 13.9105 24.829 17.2941 25.7893C20.6762 26.7497 22.9225 29.1266 22.312 31.098Z" fill="white" fill-opacity="1" stroke="#263238" stroke-opacity="0.5" stroke-width="0.5" stroke-miterlimit="10" stroke-linecap="round" stroke-linejoin="round"/>
</svg>
