<?xml version="1.0" encoding="utf-8"?>
<!-- Generator: Adobe Illustrator 27.5.0, SVG Export Plug-In . SVG Version: 6.00 Build 0)  -->
<svg version="1.1" xmlns="http://www.w3.org/2000/svg" xmlns:xlink="http://www.w3.org/1999/xlink" x="0px" y="0px"
	 viewBox="0 0 500 500" style="enable-background:new 0 0 500 500;" xml:space="preserve">
<g id="Background_Simple">
	<g>
		<path style="fill:#92E3A9;" d="M452.282,118.763c-1.659-2.762-3.384-5.472-5.186-8.122c-23.997-35.26-63.947-59.4-102.773-70.333
			c-17.009-4.797-34.472-7.306-51.905-7.947c-114.344-4.155-156.35,90.124-193.19,114.432
			c-36.84,24.309-93.374,65.829-86.28,153.049c5.383,66.316,43.109,129.726,112.009,158.581c7.589,3.188,15.563,5.955,23.912,8.251
			c15.531,4.273,32.363,6.955,50.5,7.762c52.092,2.321,94.389-10.236,135.763-41.857c9.617-7.35,19.183-15.641,31.664-16.549
			c9.072-0.66,17.673,2.599,8.19,11.366c-11.145,10.305,1.715,30.572,30.006,16.491c47.251-23.517,66.689-74.256,75.846-125.85
			C492.078,254.708,486.629,175.952,452.282,118.763z"/>
		<path style="opacity:0.7;fill:#FFFFFF;" d="M452.282,118.763c-1.659-2.762-3.384-5.472-5.186-8.122
			c-23.997-35.26-63.947-59.4-102.773-70.333c-17.009-4.797-34.472-7.306-51.905-7.947c-114.344-4.155-156.35,90.124-193.19,114.432
			c-36.84,24.309-93.374,65.829-86.28,153.049c5.383,66.316,43.109,129.726,112.009,158.581c7.589,3.188,15.563,5.955,23.912,8.251
			c15.531,4.273,32.363,6.955,50.5,7.762c52.092,2.321,94.389-10.236,135.763-41.857c9.617-7.35,19.183-15.641,31.664-16.549
			c9.072-0.66,17.673,2.599,8.19,11.366c-11.145,10.305,1.715,30.572,30.006,16.491c47.251-23.517,66.689-74.256,75.846-125.85
			C492.078,254.708,486.629,175.952,452.282,118.763z"/>
	</g>
</g>
<g id="Clouds">
	<path style="fill:none;stroke:#263238;stroke-linecap:round;stroke-linejoin:round;stroke-miterlimit:10;" d="M432.766,136.636
		c0,0-5.248-21.867-35.862-26.241c-30.614-4.373-34.987,21.867-41.11,25.366c-6.123,3.499-9.621-6.123-19.243-5.248
		c-9.622,0.875-14.87,8.747-19.243,12.246c-4.373,3.499-12.246-6.997-18.368-5.248c-6.123,1.749-11.371,10.496-11.371,10.496
		h177.561c0,0-6.123-9.621-14.87-13.12C441.513,131.388,438.014,136.636,432.766,136.636z"/>
	<path style="fill:none;stroke:#263238;stroke-linecap:round;stroke-linejoin:round;stroke-miterlimit:10;" d="M137.986,202.3
		c0,0-3.762-15.674-25.706-18.809c-21.944-3.135-25.079,15.674-29.468,18.182c-4.389,2.508-6.897-4.389-13.793-3.762
		c-6.897,0.627-10.659,6.27-13.794,8.778c-3.135,2.508-8.778-5.016-13.167-3.762c-4.389,1.254-8.151,7.524-8.151,7.524h127.277
		c0,0-4.389-6.897-10.659-9.405C144.256,198.538,141.748,202.3,137.986,202.3z"/>
	<path style="fill:none;stroke:#263238;stroke-linecap:round;stroke-linejoin:round;stroke-miterlimit:10;" d="M195.214,69.848
		c0,0-2.384-9.932-16.288-11.918s-15.891,9.932-18.672,11.521c-2.781,1.589-4.37-2.781-8.74-2.384
		c-4.37,0.397-6.754,3.973-8.74,5.562c-1.986,1.589-5.562-3.178-8.343-2.384c-2.781,0.795-5.165,4.767-5.165,4.767h80.648
		c0,0-2.781-4.37-6.754-5.959C199.187,67.465,197.597,69.848,195.214,69.848z"/>
</g>
<g id="Sun">
	<g>
		
			<circle style="fill:none;stroke:#263238;stroke-linecap:round;stroke-linejoin:round;stroke-miterlimit:10;" cx="309.446" cy="67.339" r="22.985"/>
		<g>
			
				<line style="fill:none;stroke:#263238;stroke-linecap:round;stroke-linejoin:round;stroke-miterlimit:10;" x1="309.446" y1="28.771" x2="309.446" y2="38.12"/>
			
				<line style="fill:none;stroke:#263238;stroke-linecap:round;stroke-linejoin:round;stroke-miterlimit:10;" x1="309.446" y1="98.115" x2="309.446" y2="107.465"/>
		</g>
		<g>
			
				<line style="fill:none;stroke:#263238;stroke-linecap:round;stroke-linejoin:round;stroke-miterlimit:10;" x1="337.269" y1="40.295" x2="330.658" y2="46.907"/>
			
				<line style="fill:none;stroke:#263238;stroke-linecap:round;stroke-linejoin:round;stroke-miterlimit:10;" x1="288.235" y1="89.329" x2="281.624" y2="95.94"/>
		</g>
		<g>
			
				<line style="fill:none;stroke:#263238;stroke-linecap:round;stroke-linejoin:round;stroke-miterlimit:10;" x1="348.793" y1="68.118" x2="339.443" y2="68.118"/>
			
				<line style="fill:none;stroke:#263238;stroke-linecap:round;stroke-linejoin:round;stroke-miterlimit:10;" x1="279.449" y1="68.118" x2="270.099" y2="68.118"/>
		</g>
		<g>
			
				<line style="fill:none;stroke:#263238;stroke-linecap:round;stroke-linejoin:round;stroke-miterlimit:10;" x1="337.269" y1="95.94" x2="330.658" y2="89.329"/>
			
				<line style="fill:none;stroke:#263238;stroke-linecap:round;stroke-linejoin:round;stroke-miterlimit:10;" x1="288.235" y1="46.907" x2="281.624" y2="40.295"/>
		</g>
	</g>
</g>
<g id="Birds">
	<g>
		<g>
			<path style="fill:#92E3A9;stroke:#263238;stroke-linecap:round;stroke-linejoin:round;stroke-miterlimit:10;" d="M364.867,195.22
				c0,0,4.617-1.154,6.001-0.693c1.385,0.462-0.918,2.098-0.918,2.098s1.149,0.672,1.842,2.287c0.692,1.616-2.3,0.92-2.3,0.92
				s0.915,1.158-0.008,2.081c-0.923,0.923-5.078-3.693-5.078-3.693s-3.001,1.847-5.771,1.616c-2.77-0.231-4.386-0.923-6.232-3.693
				s-3.232-4.155-3.232-4.155l-1.847-0.692l2.77-1.616c0,0,2.308-2.077,4.616-1.847c2.308,0.231,3.232,0.923,3.232,0.923
				s1.385-3.693,3.462-5.078c2.077-1.385,8.541-3.232,10.618-4.386c2.077-1.154,1.616,0.693,0.923,1.847s-2.77,2.077-3.693,2.539
				c-0.923,0.462,4.847,0.693,3.924,1.847c-0.923,1.154-4.386,1.616-4.386,1.616s3.232,1.154,2.539,2.077
				c-0.693,0.923-3.462,0.923-3.462,0.923s0.923,2.308-0.462,2.308c-1.385,0-1.385,0-1.385,0S366.714,195.682,364.867,195.22z"/>
			<path style="fill:#263238;stroke:#263238;stroke-linecap:round;stroke-linejoin:round;stroke-miterlimit:10;" d="
				M357.942,188.757c0,0-1.847-3.693-0.923-6.001c0.923-2.308,9.464-8.31,9.233-6.001c-0.231,2.308-2.539,3.693-2.539,3.693
				s3.462-1.154,3.462-0.231c0,0.923,0,0.923,0,0.923s-3.924,0.923-5.771,2.539C359.558,185.294,357.942,188.757,357.942,188.757z"
				/>
			<circle style="fill:#263238;" cx="352.539" cy="190.555" r="0.687"/>
		</g>
		
			<path style="fill:#FFFFFF;stroke:#263238;stroke-width:0.5;stroke-linecap:round;stroke-linejoin:round;stroke-miterlimit:10;" d="
			M361.811,197.61c-0.415,1.4-2.616,1.981-4.916,1.299s-3.827-2.37-3.411-3.77c0.415-1.4,2.616-1.981,4.916-1.299
			C360.699,194.522,362.226,196.21,361.811,197.61z"/>
	</g>
	<g>
		<g>
			<path style="fill:#92E3A9;stroke:#263238;stroke-linecap:round;stroke-linejoin:round;stroke-miterlimit:10;" d="
				M135.272,136.058c0,0-4.617-1.154-6.002-0.693c-1.385,0.462,0.919,2.098,0.919,2.098s-1.149,0.672-1.842,2.287
				c-0.692,1.616,2.3,0.92,2.3,0.92s-0.915,1.158,0.008,2.081c0.923,0.923,5.078-3.693,5.078-3.693s3.001,1.847,5.771,1.616
				c2.77-0.231,4.386-0.923,6.232-3.693s3.232-4.155,3.232-4.155l1.847-0.693l-2.77-1.616c0,0-2.308-2.077-4.617-1.847
				c-2.308,0.231-3.232,0.923-3.232,0.923s-1.385-3.693-3.462-5.078c-2.077-1.385-8.541-3.232-10.618-4.386
				c-2.077-1.154-1.616,0.692-0.923,1.847c0.692,1.154,2.77,2.077,3.693,2.539c0.923,0.462-4.847,0.692-3.924,1.847
				c0.923,1.154,4.386,1.616,4.386,1.616s-3.232,1.154-2.539,2.077c0.693,0.923,3.462,0.923,3.462,0.923s-0.923,2.308,0.462,2.308
				c1.385,0,1.385,0,1.385,0S133.426,136.52,135.272,136.058z"/>
			<path style="fill:#263238;stroke:#263238;stroke-linecap:round;stroke-linejoin:round;stroke-miterlimit:10;" d="
				M142.197,129.595c0,0,1.847-3.693,0.923-6.001c-0.923-2.308-9.464-8.31-9.233-6.001c0.231,2.308,2.539,3.693,2.539,3.693
				s-3.462-1.154-3.462-0.231c0,0.923,0,0.923,0,0.923s3.924,0.923,5.771,2.539C140.581,126.132,142.197,129.595,142.197,129.595z"
				/>
			<path style="fill:#263238;" d="M146.912,131.393c0,0.38,0.308,0.687,0.687,0.687c0.38,0,0.687-0.308,0.687-0.687
				c0-0.38-0.308-0.687-0.687-0.687C147.22,130.706,146.912,131.014,146.912,131.393z"/>
		</g>
		
			<path style="fill:#FFFFFF;stroke:#263238;stroke-width:0.5;stroke-linecap:round;stroke-linejoin:round;stroke-miterlimit:10;" d="
			M138.328,138.448c0.415,1.4,2.616,1.981,4.916,1.299c2.299-0.683,3.827-2.37,3.411-3.77c-0.415-1.4-2.616-1.981-4.916-1.299
			C139.44,135.36,137.913,137.048,138.328,138.448z"/>
	</g>
</g>
<g id="Plants">
	<g>
		<g>
			<path style="fill:#92E3A9;stroke:#263238;stroke-linecap:round;stroke-linejoin:round;stroke-miterlimit:10;" d="
				M122.877,307.967c0,0-9.127-14.513-25.668-23.091c-16.541-8.577-23.594-17.047-15.01-16.542
				c10.415,0.613,34.002,8.883,44.723,37.984C131.548,318.875,122.877,307.967,122.877,307.967"/>
			<path style="fill:none;stroke:#263238;stroke-linecap:round;stroke-linejoin:round;stroke-miterlimit:10;" d="M122.327,304.175
				c0,0-8.271-16.542-23.893-24.506"/>
		</g>
		<g>
			<path style="fill:#92E3A9;stroke:#263238;stroke-linecap:round;stroke-linejoin:round;stroke-miterlimit:10;" d="
				M132.824,318.002c0,0-5.217-14.591-2.074-31.137c3.143-16.545,1.063-26.287-3.372-19.905
				c-5.381,7.744-12.677,29.125,2.016,52.996C135.733,330.256,132.824,318.002,132.824,318.002"/>
			<path style="fill:none;stroke:#263238;stroke-linecap:round;stroke-linejoin:round;stroke-miterlimit:10;" d="M130.436,315.494
				c0,0-7.136-15.116-4.071-30.666"/>
		</g>
		<g>
			<path style="fill:#92E3A9;stroke:#263238;stroke-linecap:round;stroke-linejoin:round;stroke-miterlimit:10;" d="
				M123.553,300.669c0,0-5.217-14.591-2.074-31.137c3.143-16.545,1.063-26.287-3.372-19.905
				c-5.381,7.743-12.677,29.125,2.016,52.996C126.462,312.923,123.553,300.669,123.553,300.669"/>
			<path style="fill:none;stroke:#263238;stroke-linecap:round;stroke-linejoin:round;stroke-miterlimit:10;" d="M122.327,304.175
				c0,0-8.298-21.13-5.233-36.68"/>
		</g>
	</g>
	<g>
		<g>
			<path style="fill:#92E3A9;stroke:#263238;stroke-linecap:round;stroke-linejoin:round;stroke-miterlimit:10;" d="M331.196,289.89
				c0,0,9.127-14.513,25.668-23.091c16.542-8.577,23.594-17.046,15.01-16.542c-10.415,0.613-34.002,8.883-44.724,37.984
				C322.525,300.798,331.196,289.89,331.196,289.89"/>
			<path style="fill:none;stroke:#263238;stroke-linecap:round;stroke-linejoin:round;stroke-miterlimit:10;" d="M331.746,286.098
				c0,0,8.271-16.542,23.893-24.506"/>
		</g>
		<g>
			<path style="fill:#92E3A9;stroke:#263238;stroke-linecap:round;stroke-linejoin:round;stroke-miterlimit:10;" d="
				M321.249,299.925c0,0,5.217-14.592,2.074-31.137c-3.143-16.545-1.063-26.287,3.372-19.905
				c5.381,7.743,12.677,29.125-2.016,52.996C318.34,312.179,321.249,299.925,321.249,299.925"/>
			<path style="fill:none;stroke:#263238;stroke-linecap:round;stroke-linejoin:round;stroke-miterlimit:10;" d="M323.637,297.417
				c0,0,7.136-15.116,4.071-30.666"/>
		</g>
		<g>
			<path style="fill:#92E3A9;stroke:#263238;stroke-linecap:round;stroke-linejoin:round;stroke-miterlimit:10;" d="M330.52,282.592
				c0,0,5.217-14.592,2.074-31.137c-3.143-16.545-1.063-26.287,3.372-19.905c5.381,7.744,12.677,29.125-2.016,52.996
				C327.611,294.846,330.52,282.592,330.52,282.592"/>
			<path style="fill:none;stroke:#263238;stroke-linecap:round;stroke-linejoin:round;stroke-miterlimit:10;" d="M331.746,286.098
				c0,0,8.298-21.13,5.233-36.68"/>
		</g>
	</g>
</g>
<g id="House">
	<g>
		<polygon style="fill:#263238;stroke:#263238;stroke-linecap:round;stroke-linejoin:round;stroke-miterlimit:10;" points="
			335.361,238.144 240.302,238.144 187.12,153.576 282.179,153.576 		"/>
		
			<rect x="129.644" y="235.238" style="fill:#C7C7C7;stroke:#263238;stroke-linecap:round;stroke-linejoin:round;stroke-miterlimit:10;" width="97.43" height="86.063"/>
		<polygon style="fill:#FFFFFF;stroke:#263238;stroke-linecap:round;stroke-linejoin:round;stroke-miterlimit:10;" points="
			324.504,321.301 227.074,321.301 227.074,235.238 276.601,156.482 324.504,235.238 		"/>
		<g>
			
				<rect x="238.441" y="250.664" style="fill:#C7C7C7;stroke:#263238;stroke-linecap:round;stroke-linejoin:round;stroke-miterlimit:10;" width="9.743" height="29.229"/>
			
				<rect x="248.184" y="250.664" style="fill:#263238;stroke:#263238;stroke-linecap:round;stroke-linejoin:round;stroke-miterlimit:10;" width="9.743" height="29.229"/>
			
				<rect x="257.927" y="250.664" style="fill:#C7C7C7;stroke:#263238;stroke-linecap:round;stroke-linejoin:round;stroke-miterlimit:10;" width="9.743" height="29.229"/>
		</g>
		<g>
			
				<rect x="195.41" y="250.664" style="fill:#919191;stroke:#263238;stroke-linecap:round;stroke-linejoin:round;stroke-miterlimit:10;" width="8.119" height="29.229"/>
			
				<rect x="203.529" y="250.664" style="fill:#263238;stroke:#263238;stroke-linecap:round;stroke-linejoin:round;stroke-miterlimit:10;" width="8.119" height="29.229"/>
			
				<rect x="211.648" y="250.664" style="fill:#919191;stroke:#263238;stroke-linecap:round;stroke-linejoin:round;stroke-miterlimit:10;" width="8.119" height="29.229"/>
		</g>
		<g>
			
				<rect x="135.328" y="250.664" style="fill:#919191;stroke:#263238;stroke-linecap:round;stroke-linejoin:round;stroke-miterlimit:10;" width="8.119" height="29.229"/>
			
				<rect x="143.447" y="250.664" style="fill:#263238;stroke:#263238;stroke-linecap:round;stroke-linejoin:round;stroke-miterlimit:10;" width="8.119" height="29.229"/>
			
				<rect x="151.566" y="250.664" style="fill:#919191;stroke:#263238;stroke-linecap:round;stroke-linejoin:round;stroke-miterlimit:10;" width="8.119" height="29.229"/>
		</g>
		<g>
			
				<rect x="287.968" y="250.664" style="fill:#C7C7C7;stroke:#263238;stroke-linecap:round;stroke-linejoin:round;stroke-miterlimit:10;" width="9.743" height="29.229"/>
			
				<rect x="297.711" y="250.664" style="fill:#263238;stroke:#263238;stroke-linecap:round;stroke-linejoin:round;stroke-miterlimit:10;" width="9.743" height="29.229"/>
			
				<rect x="307.454" y="250.664" style="fill:#C7C7C7;stroke:#263238;stroke-linecap:round;stroke-linejoin:round;stroke-miterlimit:10;" width="9.743" height="29.229"/>
		</g>
		<g>
			
				<rect x="268.482" y="202.761" style="fill:#C7C7C7;stroke:#263238;stroke-linecap:round;stroke-linejoin:round;stroke-miterlimit:10;" width="6.495" height="17.862"/>
			
				<rect x="274.977" y="202.761" style="fill:#263238;stroke:#263238;stroke-linecap:round;stroke-linejoin:round;stroke-miterlimit:10;" width="6.495" height="17.862"/>
			
				<rect x="281.473" y="202.761" style="fill:#C7C7C7;stroke:#263238;stroke-linecap:round;stroke-linejoin:round;stroke-miterlimit:10;" width="6.495" height="17.862"/>
		</g>
		<polygon style="fill:#92E3A9;stroke:#263238;stroke-linecap:round;stroke-linejoin:round;stroke-miterlimit:10;" points="
			124.222,238.144 228.842,238.144 282.024,153.576 177.404,153.576 		"/>
		<g>
			
				<rect x="164.592" y="191.775" style="fill:#C7C7C7;stroke:#263238;stroke-linecap:round;stroke-linejoin:round;stroke-miterlimit:10;" width="41.314" height="27.34"/>
			<polygon style="fill:#FFFFFF;stroke:#263238;stroke-linecap:round;stroke-linejoin:round;stroke-miterlimit:10;" points="
				205.906,191.775 234.455,172.168 205.906,219.115 			"/>
			<polygon style="fill:#92E3A9;stroke:#263238;stroke-linecap:round;stroke-linejoin:round;stroke-miterlimit:10;" points="
				161.281,192.704 204.553,192.704 234.455,172.168 191.19,172.168 			"/>
		</g>
		<g>
			
				<rect x="174.707" y="197.58" style="fill:#919191;stroke:#263238;stroke-linecap:round;stroke-linejoin:round;stroke-miterlimit:10;" width="6.495" height="17.862"/>
			
				<rect x="181.202" y="197.58" style="fill:#263238;stroke:#263238;stroke-linecap:round;stroke-linejoin:round;stroke-miterlimit:10;" width="6.495" height="17.862"/>
			
				<rect x="187.698" y="197.58" style="fill:#919191;stroke:#263238;stroke-linecap:round;stroke-linejoin:round;stroke-miterlimit:10;" width="6.495" height="17.862"/>
		</g>
		<g>
			<polygon style="fill:#FFFFFF;stroke:#263238;stroke-linecap:round;stroke-linejoin:round;stroke-miterlimit:10;" points="
				256.836,140.75 253.203,140.75 253.203,167.285 256.836,161.418 			"/>
			
				<rect x="242.633" y="140.75" style="fill:#C7C7C7;stroke:#263238;stroke-linecap:round;stroke-linejoin:round;stroke-miterlimit:10;" width="10.738" height="26.535"/>
		</g>
		<g>
			
				<rect x="165.856" y="255.578" style="fill:#263238;stroke:#263238;stroke-linecap:round;stroke-linejoin:round;stroke-miterlimit:10;" width="25.007" height="65.723"/>
			<path style="fill:#FFFFFF;stroke:#263238;stroke-linecap:round;stroke-linejoin:round;stroke-miterlimit:10;" d="
				M189.543,288.355c0-1.222-0.991-2.213-2.213-2.213c-1.222,0-2.213,0.991-2.213,2.213c0,1.222,0.991,2.213,2.213,2.213
				C188.552,290.569,189.543,289.578,189.543,288.355z"/>
		</g>
	</g>
</g>
<g id="Hand">
	<g>
		<g>
			<path style="fill:#FFFFFF;stroke:#263238;stroke-linecap:round;stroke-linejoin:round;stroke-miterlimit:10;" d="
				M124.487,307.553c0,0-20.943-11.461-40.5-13.589s-30.872,6.983-30.775,10.94c0.097,3.956,13.67,4.252,16.245,4.913
				c2.575,0.661,18.304-3.682,41.516,1.833c23.212,5.515,26.185,6.649,26.185,6.649L124.487,307.553z"/>
			<path style="fill:#FFFFFF;stroke:#263238;stroke-linecap:round;stroke-linejoin:round;stroke-miterlimit:10;" d="
				M115.727,307.291c0,0-21.852-9.615-41.52-10.052c-19.667-0.437-30.156,9.615-29.719,13.548
				c0.437,3.933,13.986,3.059,16.608,3.496c2.622,0.437,17.919-5.245,41.519-1.748c23.601,3.496,26.66,4.37,26.66,4.37
				L115.727,307.291z"/>
			<path style="fill:#FFFFFF;stroke:#263238;stroke-linecap:round;stroke-linejoin:round;stroke-miterlimit:10;" d="
				M395.066,299.202l-30.345-8.218c0,0-21.494-17.069-47.414-15.172c-25.919,1.897-49.31,12.012-56.896,17.701
				c-7.586,5.69-17.069,11.379-18.965,12.644c-1.897,1.264-27.816-5.69-41.724,0c-13.908,5.69-24.655,17.069-24.655,17.069
				s-58.793-17.701-73.333-20.23c-14.54-2.529-31.609-1.264-43.621,7.586c-12.012,8.85-9.483,14.54-3.161,15.805
				c6.322,1.264,7.586-5.057,42.356,4.425c34.77,9.483,77.126,34.138,94.195,43.621c17.069,9.483,45.517,22.759,64.483,17.069
				c18.965-5.69,70.805-25.287,82.816-25.287c12.011,0,50.575,2.529,50.575,2.529L395.066,299.202z"/>
			<polygon style="fill:#263238;stroke:#263238;stroke-linecap:round;stroke-linejoin:round;stroke-miterlimit:10;" points="
				378.563,341.023 352.483,366.06 389.376,368.742 			"/>
			<path style="fill:none;stroke:#263238;stroke-linecap:round;stroke-linejoin:round;stroke-miterlimit:10;" d="M175.066,323.225
				c0,0-5.872,7.717-3.397,17.719c1.529,6.177,8.741,4.808,21.852,2.185c13.111-2.622,0.874-4.37,31.467-4.807
				c30.593-0.437,63.372-1.311,65.12-1.311"/>
			<path style="fill:none;stroke:#263238;stroke-linecap:round;stroke-linejoin:round;stroke-miterlimit:10;" d="M174.845,344.667
				c0,0,0.583-3.992,4.844-6.459c0,0,7.266-3.768,11.841-3.768c4.575,0,8.342,4.844,6.997,6.459"/>
			
				<line style="fill:none;stroke:#263238;stroke-linecap:round;stroke-linejoin:round;stroke-miterlimit:10;" x1="214.135" y1="337.132" x2="214.135" y2="331.749"/>
			<path style="fill:none;stroke:#263238;stroke-linecap:round;stroke-linejoin:round;stroke-miterlimit:10;" d="M216.826,326.636
				c0,0,0.807,2.96,0.269,7.535"/>
		</g>
		<path style="fill:#92E3A9;stroke:#263238;stroke-linecap:round;stroke-linejoin:round;stroke-miterlimit:10;" d="M421.661,397.9
			h-40.773c-2.479,0-4.489-2.01-4.489-4.489V291.116c0-2.479,2.01-4.489,4.489-4.489h40.773V397.9z"/>
		<g>
			<path style="fill:#92E3A9;stroke:#263238;stroke-linecap:round;stroke-linejoin:round;stroke-miterlimit:10;" d="
				M494.187,406.593h-72.188c-1.886,0-3.415-1.529-3.415-3.414V284.329c0-1.886,1.529-3.414,3.415-3.414h72.188V406.593z"/>
		</g>
	</g>
	<g>
		
			<line style="fill:#92E3A9;stroke:#263238;stroke-linecap:round;stroke-linejoin:round;stroke-miterlimit:10;" x1="382.674" y1="296.823" x2="416.324" y2="296.823"/>
		
			<line style="fill:#92E3A9;stroke:#263238;stroke-linecap:round;stroke-linejoin:round;stroke-miterlimit:10;" x1="415.866" y1="310.027" x2="381.656" y2="310.027"/>
		
			<line style="fill:#92E3A9;stroke:#263238;stroke-linecap:round;stroke-linejoin:round;stroke-miterlimit:10;" x1="380.456" y1="334.034" x2="403.863" y2="334.034"/>
	</g>
	
		<line style="fill:#92E3A9;stroke:#263238;stroke-linecap:round;stroke-linejoin:round;stroke-miterlimit:10;" x1="408.064" y1="334.034" x2="415.866" y2="334.034"/>
</g>
</svg>
