<svg width="1280" height="776" viewBox="0 0 1280 776" fill="none" xmlns="http://www.w3.org/2000/svg">
<path d="M647.201 159.853C644.76 155.964 642.223 152.148 639.572 148.416C604.27 98.7653 545.499 64.773 488.382 49.3779C463.36 42.6231 437.67 39.0901 412.024 38.1875C243.813 32.3367 182.017 165.094 127.822 199.323C73.6265 233.553 -9.54087 292.019 0.895137 414.836C8.81409 508.218 64.3129 597.507 165.672 638.139C176.836 642.628 188.567 646.524 200.849 649.757C223.697 655.774 248.458 659.551 275.14 660.687C351.772 663.956 413.996 646.274 474.861 601.747C489.009 591.397 503.081 579.723 521.442 578.444C534.788 577.515 547.441 582.104 533.491 594.449C517.095 608.96 536.013 637.498 577.633 617.67C647.144 584.555 675.739 513.108 689.21 440.457C705.745 351.281 697.729 240.383 647.201 159.853Z" fill="black" fill-opacity="0.5"/>
<path opacity="0.7" d="M647.201 159.853C644.76 155.964 642.223 152.148 639.572 148.416C604.27 98.7653 545.499 64.773 488.382 49.3779C463.36 42.6231 437.67 39.0901 412.024 38.1875C243.813 32.3367 182.017 165.094 127.822 199.323C73.6265 233.553 -9.54087 292.019 0.895137 414.836C8.81409 508.218 64.3129 597.507 165.672 638.139C176.836 642.628 188.567 646.524 200.849 649.757C223.697 655.774 248.458 659.551 275.14 660.687C351.772 663.956 413.996 646.274 474.861 601.747C489.009 591.397 503.081 579.723 521.442 578.444C534.788 577.515 547.441 582.104 533.491 594.449C517.095 608.96 536.013 637.498 577.633 617.67C647.144 584.555 675.739 513.108 689.21 440.457C705.745 351.281 697.729 240.383 647.201 159.853Z" fill="#121212" fill-opacity="0.5"/>
<path d="M580.763 249.142C580.763 249.142 573.043 218.35 528.006 212.191C482.97 206.033 476.537 242.983 467.529 247.91C458.522 252.837 453.376 239.288 439.221 240.52C425.066 241.752 417.346 252.837 410.912 257.764C404.479 262.691 392.897 247.911 383.891 250.374C374.884 252.837 367.163 265.154 367.163 265.154H628.374C628.374 265.154 619.366 251.606 606.499 246.679C593.631 241.752 588.483 249.142 580.763 249.142Z" stroke="#263238" stroke-opacity="0.5" stroke-miterlimit="10" stroke-linecap="round" stroke-linejoin="round"/>
<path d="M163.111 577.98C163.111 577.98 157.577 555.909 125.295 551.495C93.0129 547.08 88.401 573.566 81.9443 577.097C75.4876 580.629 71.7981 570.917 61.6534 571.8C51.5072 572.683 45.9729 580.629 41.361 584.161C36.7491 587.692 28.4476 577.097 21.991 578.863C15.5343 580.629 10 589.458 10 589.458H197.238C197.238 589.458 190.781 579.746 181.557 576.214C172.335 572.683 168.645 577.98 163.111 577.98Z" stroke="#263238" stroke-miterlimit="10" stroke-linecap="round" stroke-linejoin="round"/>
<path d="M361.016 18.0955C361.016 18.0955 357.509 4.1099 337.055 1.31335C316.601 -1.4832 313.678 15.2989 309.587 17.5364C305.495 19.7739 303.158 13.6204 296.729 14.1794C290.3 14.7385 286.793 19.7739 283.872 22.0115C280.95 24.249 275.689 17.5364 271.598 18.6545C267.507 19.774 264 25.367 264 25.367H382.642C382.642 25.367 378.55 19.2135 372.706 16.976C366.861 14.7399 364.522 18.0955 361.016 18.0955Z" stroke="#263238" stroke-opacity="0.5" stroke-miterlimit="10" stroke-linecap="round" stroke-linejoin="round"/>
<path d="M-97.4997 729C111.54 729 281 566.703 281 366.5C281 166.297 111.54 4 -97.4997 4C-306.54 4 -476 166.297 -476 366.5C-476 566.703 -306.54 729 -97.4997 729Z" stroke="#263238" stroke-opacity="0.5" stroke-miterlimit="10" stroke-linecap="round" stroke-linejoin="round"/>
<path d="M468 616V629.165" stroke="#263238" stroke-opacity="0.5" stroke-miterlimit="10" stroke-linecap="round" stroke-linejoin="round"/>
<path d="M825.884 98.6455V111.812" stroke="#263238" stroke-opacity="0.5" stroke-miterlimit="10" stroke-linecap="round" stroke-linejoin="round"/>
<path d="M270.755 589H257" stroke="#263238" stroke-opacity="0.5" stroke-miterlimit="10" stroke-linecap="round" stroke-linejoin="round"/>
<path d="M184.755 542H171" stroke="#263238" stroke-opacity="0.5" stroke-miterlimit="10" stroke-linecap="round" stroke-linejoin="round"/>
<path d="M261.86 606.355L252.134 597.046" stroke="#263238" stroke-opacity="0.5" stroke-miterlimit="10" stroke-linecap="round" stroke-linejoin="round"/>
<path d="M189.725 537.311L180 528" stroke="#263238" stroke-opacity="0.5" stroke-miterlimit="10" stroke-linecap="round" stroke-linejoin="round"/>
<path d="M464.808 599.733C464.808 599.733 471.6 598.108 473.636 598.757C475.673 599.407 472.285 601.711 472.285 601.711C472.285 601.711 473.975 602.657 474.995 604.931C476.013 607.207 471.611 606.227 471.611 606.227C471.611 606.227 472.957 607.857 471.6 609.157C470.242 610.457 464.129 603.957 464.129 603.957C464.129 603.957 459.715 606.558 455.64 606.232C451.565 605.907 449.187 604.933 446.472 601.032C443.756 597.132 441.717 595.181 441.717 595.181L439 594.207L443.075 591.932C443.075 591.932 446.47 589.007 449.866 589.331C453.261 589.656 454.62 590.63 454.62 590.63C454.62 590.63 456.658 585.43 459.713 583.48C462.769 581.53 472.278 578.929 475.333 577.304C478.389 575.679 477.711 578.28 476.691 579.905C475.672 581.53 472.616 582.829 471.258 583.48C469.901 584.13 478.389 584.456 477.031 586.081C475.673 587.706 470.579 588.356 470.579 588.356C470.579 588.356 475.333 589.981 474.314 591.281C473.294 592.581 469.221 592.581 469.221 592.581C469.221 592.581 470.579 595.831 468.541 595.831C466.504 595.831 466.504 595.831 466.504 595.831C466.504 595.831 467.525 600.383 464.808 599.733Z" fill="#92E3A9" fill-opacity="0.5" stroke="#263238" stroke-opacity="0.5" stroke-miterlimit="10" stroke-linecap="round" stroke-linejoin="round"/>
<path d="M454.62 590.632C454.62 590.632 451.903 585.432 453.262 582.182C454.62 578.932 467.185 570.48 466.845 573.731C466.505 576.981 463.11 578.932 463.11 578.932C463.11 578.932 468.203 577.307 468.203 578.606C468.203 579.906 468.203 579.906 468.203 579.906C468.203 579.906 462.43 581.206 459.713 583.481C456.997 585.755 454.62 590.632 454.62 590.632Z" fill="#263238" fill-opacity="0.5" stroke="#263238" stroke-opacity="0.5" stroke-miterlimit="10" stroke-linecap="round" stroke-linejoin="round"/>
<path d="M446.672 594.131C447.23 594.131 447.682 593.698 447.682 593.164C447.682 592.629 447.23 592.196 446.672 592.196C446.114 592.196 445.661 592.629 445.661 593.164C445.661 593.698 446.114 594.131 446.672 594.131Z" fill="#263238" fill-opacity="0.5"/>
<path d="M460.312 603.098C459.702 605.069 456.464 605.888 453.08 604.927C449.697 603.967 447.45 601.59 448.062 599.619C448.673 597.647 451.911 596.829 455.294 597.789C458.676 598.75 460.923 601.127 460.312 603.098Z" fill="white" fill-opacity="0.5" stroke="#263238" stroke-opacity="0.5" stroke-width="0.5" stroke-miterlimit="10" stroke-linecap="round" stroke-linejoin="round"/>
<path d="M44.7451 178.733C44.7451 178.733 37.953 177.108 35.9156 177.757C33.8781 178.407 37.2675 180.711 37.2675 180.711C37.2675 180.711 35.5772 181.657 34.5577 183.931C33.5397 186.207 37.9413 185.227 37.9413 185.227C37.9413 185.227 36.5952 186.858 37.953 188.157C39.3109 189.457 45.4233 182.957 45.4233 182.957C45.4233 182.957 49.8381 185.558 53.913 185.233C57.988 184.907 60.3653 183.933 63.081 180.032C65.7966 176.132 67.8356 174.182 67.8356 174.182L70.5527 173.206L66.4777 170.93C66.4777 170.93 63.0824 168.005 59.6856 168.329C56.2903 168.655 54.931 169.629 54.931 169.629C54.931 169.629 52.8936 164.429 49.8381 162.479C46.7826 160.528 37.2734 157.927 34.2179 156.302C31.1624 154.678 31.8406 157.277 32.8601 158.903C33.8781 160.528 36.935 161.828 38.2929 162.479C39.6507 163.129 31.1624 163.453 32.5203 165.079C33.8781 166.704 38.9725 167.355 38.9725 167.355C38.9725 167.355 34.2179 168.98 35.2374 170.28C36.2569 171.579 40.3303 171.579 40.3303 171.579C40.3303 171.579 38.9725 174.829 41.01 174.829C43.0475 174.829 43.0475 174.829 43.0475 174.829C43.0475 174.829 42.0295 179.383 44.7451 178.733Z" fill="#92E3A9" fill-opacity="0.5" stroke="#263238" stroke-opacity="0.5" stroke-miterlimit="10" stroke-linecap="round" stroke-linejoin="round"/>
<path d="M54.9326 169.632C54.9326 169.632 57.6497 164.432 56.2904 161.182C54.9325 157.932 42.3678 149.48 42.7077 152.731C43.0475 155.981 46.4428 157.932 46.4428 157.932C46.4428 157.932 41.3499 156.307 41.3499 157.606C41.3499 158.906 41.3499 158.906 41.3499 158.906C41.3499 158.906 47.1225 160.206 49.8396 162.481C52.5552 164.755 54.9326 169.632 54.9326 169.632Z" fill="#263238" fill-opacity="0.5" stroke="#263238" stroke-opacity="0.5" stroke-miterlimit="10" stroke-linecap="round" stroke-linejoin="round"/>
<path d="M61.8689 172.164C61.8689 172.699 62.322 173.131 62.8795 173.131C63.4386 173.131 63.8902 172.697 63.8902 172.164C63.8902 171.629 63.4371 171.196 62.8795 171.196C62.322 171.196 61.8689 171.63 61.8689 172.164Z" fill="#263238" fill-opacity="0.5"/>
<path d="M49.2409 182.098C49.8514 184.069 53.0893 184.887 56.4729 183.927C59.8549 182.965 62.1028 180.59 61.4908 178.618C60.8803 176.647 57.6424 175.829 54.2589 176.789C50.8768 177.75 48.6304 180.127 49.2409 182.098Z" fill="white" fill-opacity="0.5" stroke="#263238" stroke-opacity="0.5" stroke-width="0.5" stroke-miterlimit="10" stroke-linecap="round" stroke-linejoin="round"/>
<path d="M1633 855L1044 940.5L1123.5 679L1074 515.5L1250 488L1466.5 515.5L1633 855Z" fill="#263238" fill-opacity="0.3" stroke="#263238" stroke-opacity="0.1" stroke-miterlimit="10" stroke-linecap="round" stroke-linejoin="round"/>
<path d="M1211 370L1286.51 224L1348 224L1211 370Z" fill="white" fill-opacity="0.12" stroke="#263238" stroke-opacity="0.5" stroke-miterlimit="10" stroke-linecap="round" stroke-linejoin="round"/>
<g opacity="0.05">
<path d="M898.323 421.5L883.992 421.75L884.71 462.902L899.041 462.652L898.323 421.5Z" fill="#C7C7C7"/>
<path d="M912.654 421.25L898.323 421.5L899.041 462.652L913.372 462.402L912.654 421.25Z" fill="#263238"/>
<path d="M926.985 421L912.654 421.25L913.372 462.402L927.703 462.152L926.985 421Z" fill="#C7C7C7"/>
</g>
<g opacity="0.05">
<path d="M843.938 422.173L831.996 422.381L832.714 463.533L844.656 463.325L843.938 422.173Z" fill="#919191"/>
<path d="M855.88 421.964L843.938 422.173L844.656 463.325L856.598 463.116L855.88 421.964Z" fill="#263238"/>
<path d="M867.822 421.756L855.88 421.964L856.598 463.116L868.541 462.908L867.822 421.756Z" fill="#919191"/>
</g>
<g opacity="0.05">
<path d="M791.942 422.821L780 423.03L780.718 464.182L792.66 463.973L791.942 422.821Z" fill="#919191"/>
<path d="M803.884 422.613L791.942 422.821L792.66 463.973L804.602 463.765L803.884 422.613Z" fill="#263238"/>
<path d="M815.826 422.404L803.884 422.613L804.602 463.765L816.544 463.556L815.826 422.404Z" fill="#919191"/>
</g>
<g opacity="0.05">
<path d="M957.331 421.764L943 422.015L943.718 463.167L958.049 462.916L957.331 421.764Z" fill="#C7C7C7"/>
<path d="M971.661 421.514L957.331 421.764L958.049 462.916L972.38 462.666L971.661 421.514Z" fill="#263238"/>
<path d="M985.992 421.264L971.662 421.514L972.38 462.666L986.711 462.416L985.992 421.264Z" fill="#C7C7C7"/>
</g>
<g opacity="0.05">
<path d="M1056.78 436.513L1047.23 436.68L1047.67 461.828L1057.22 461.662L1056.78 436.513Z" fill="#C7C7C7"/>
<path d="M1066.34 436.347L1056.78 436.513L1057.22 461.662L1066.78 461.495L1066.34 436.347Z" fill="#263238"/>
<path d="M1075.89 436.18L1066.34 436.347L1066.78 461.495L1076.33 461.328L1075.89 436.18Z" fill="#C7C7C7"/>
</g>
<path d="M-104.387 665H85.2261L285.613 738L181.613 866H-8L-104.387 665Z" fill="#92E3A9" fill-opacity="0.1"/>
<path d="M932.777 512.609H872V551.108H932.777V512.609Z" fill="#40B5A8" fill-opacity="0.16"/>
<path d="M932.777 512.609L974.776 485L932.777 551.108V512.609Z" fill="#C8A21C" fill-opacity="0.12"/>
<path d="M676.5 820H781.17L853.5 712H748.847L624 607.5L676.5 820Z" fill="#92E3A9" fill-opacity="0.1"/>
<g opacity="0.05">
<path d="M1011.79 437.074L1002.23 437.241L1002.67 462.389L1012.23 462.223L1011.79 437.074Z" fill="#919191"/>
<path d="M1021.34 436.908L1011.79 437.074L1012.23 462.223L1021.78 462.056L1021.34 436.908Z" fill="#263238"/>
<path d="M1030.9 436.741L1021.34 436.908L1021.78 462.056L1031.33 461.889L1030.9 436.741Z" fill="#919191"/>
</g>
<g opacity="0.05">
<path d="M1112.94 423.736L1107.59 423.829L1108.25 461.189L1113.45 452.835L1112.94 423.736Z" fill="white"/>
<path d="M1107.84 423.825L1092.05 424.101L1092.7 461.46L1108.49 461.184L1107.84 423.825Z" fill="#C7C7C7"/>
</g>
<path d="M460.788 735H424V827.547H460.788V735Z" fill="#263238" fill-opacity="0.3" stroke="#263238" stroke-opacity="0.2" stroke-miterlimit="10" stroke-linecap="round" stroke-linejoin="round"/>
</svg>
