<svg width="946" height="500" viewBox="0 0 946 500" fill="none" xmlns="http://www.w3.org/2000/svg">
<g clip-path="url(#clip0_512_222)">
<path opacity="0.7" d="M885.537 133.089C882.876 128.841 880.109 124.674 877.218 120.598C838.732 66.3685 774.651 29.2418 712.376 12.4271C685.094 5.04944 657.084 1.19065 629.122 0.20481C445.718 -6.18549 378.342 138.813 319.252 176.199C260.162 213.586 169.483 277.442 180.862 411.585C189.496 513.578 250.007 611.1 360.52 655.478C372.693 660.385 385.483 664.64 398.874 668.17C423.785 674.739 450.784 678.865 479.875 680.105C563.428 683.679 631.271 664.361 697.633 615.731C713.059 604.427 728.403 591.676 748.422 590.279C762.973 589.264 776.769 594.277 761.558 607.76C743.682 623.61 764.309 654.777 809.687 633.12C885.475 596.954 916.654 518.919 931.344 439.568C949.371 342.169 940.63 221.045 885.537 133.089Z" fill="#C0CFB8"/>
</g>
<defs>
<clipPath id="clip0_512_222">
<rect width="945" height="500" fill="white" transform="translate(0.5)"/>
</clipPath>
</defs>
</svg>
