<svg width="697" height="624" viewBox="0 0 697 624" fill="none" xmlns="http://www.w3.org/2000/svg">
<path d="M647.201 121.853C644.76 117.964 642.223 114.148 639.572 110.416C604.27 60.7653 545.499 26.773 488.382 11.3779C463.36 4.62313 437.67 1.09013 412.024 0.187518C243.813 -5.66327 182.017 127.094 127.822 161.323C73.6265 195.553 -9.54087 254.019 0.895137 376.836C8.81409 470.218 64.3129 559.507 165.672 600.139C176.836 604.628 188.567 608.524 200.849 611.757C223.697 617.774 248.458 621.551 275.14 622.687C351.772 625.956 413.996 608.274 474.861 563.747C489.009 553.397 503.081 541.723 521.442 540.444C534.788 539.515 547.441 544.104 533.491 556.449C517.095 570.96 536.013 599.498 577.632 579.67C647.144 546.555 675.739 475.108 689.21 402.457C705.745 313.281 697.729 202.383 647.201 121.853Z" fill="#C0CFB8"/>
</svg>
