<svg width="540" height="186" viewBox="0 0 540 186" fill="none" xmlns="http://www.w3.org/2000/svg">
<path d="M118.706 45.9029C118.706 45.9029 87.897 29.7643 59.1267 26.7678C30.3563 23.7713 13.7108 36.6008 13.8534 42.1727C13.9961 47.7433 33.9634 48.1601 37.7515 49.0909C41.5396 50.0217 64.6786 43.9062 98.8259 51.672C132.973 59.4379 137.347 61.0347 137.347 61.0347L118.706 45.9029Z" fill="#D4DED8" stroke="black" stroke-miterlimit="10" stroke-linecap="round" stroke-linejoin="round"/>
<path d="M105.819 45.5338C105.819 45.5338 73.6727 31.9947 44.739 31.3793C15.8068 30.764 0.376433 44.9185 1.01931 50.4566C1.66218 55.9948 21.5942 54.7641 25.4514 55.3795C29.3086 55.9948 51.8121 47.9938 86.5301 52.9181C121.25 57.8409 125.75 59.0716 125.75 59.0716L105.819 45.5338Z" fill="#D4DED8" stroke="black" stroke-miterlimit="10" stroke-linecap="round" stroke-linejoin="round"/>
<path d="M516.756 34.1434L472.116 22.5714C472.116 22.5714 440.496 -1.46399 402.365 1.20723C364.235 3.87846 329.825 18.1217 318.665 26.1326C307.505 34.1448 293.554 42.1557 290.765 43.937C287.975 45.7169 249.845 35.9247 229.385 43.937C208.925 51.9493 193.115 67.9724 193.115 67.9724C193.115 67.9724 106.624 43.047 85.2344 39.4859C63.8446 35.9247 38.7343 37.706 21.0634 50.1679C3.3925 62.6299 7.11292 70.6422 16.4132 72.4235C25.7136 74.2033 27.573 65.3026 78.7233 78.6545C129.874 92.0078 192.184 126.725 217.294 140.079C242.404 153.432 284.254 172.126 312.155 164.114C340.055 156.102 416.317 128.507 433.986 128.507C451.655 128.507 508.387 132.068 508.387 132.068L516.756 34.1434Z" fill="#D4DED8" stroke="black" stroke-miterlimit="10" stroke-linecap="round" stroke-linejoin="round"/>
<path d="M492.478 93.0327L454.112 128.288L508.385 132.065L492.478 93.0327Z" fill="black" stroke="black" stroke-miterlimit="10" stroke-linecap="round" stroke-linejoin="round"/>
<path d="M193.113 67.9707C193.113 67.9707 184.475 78.8372 188.116 92.9214C190.365 101.619 200.975 99.6917 220.262 95.9981C239.55 92.306 221.548 89.8446 266.553 89.2292C311.559 88.6139 359.78 87.3832 362.352 87.3832" stroke="black" stroke-miterlimit="10" stroke-linecap="round" stroke-linejoin="round"/>
<path d="M192.788 98.1641C192.788 98.1641 193.646 92.5429 199.914 89.069C199.914 89.069 210.603 83.7632 217.333 83.7632C224.064 83.7632 229.605 90.5842 227.627 92.8583" stroke="black" stroke-miterlimit="10" stroke-linecap="round" stroke-linejoin="round"/>
<path d="M250.588 87.5536V79.9736" stroke="black" stroke-miterlimit="10" stroke-linecap="round" stroke-linejoin="round"/>
<path d="M254.546 72.7739C254.546 72.7739 255.734 76.942 254.942 83.3842" stroke="black" stroke-miterlimit="10" stroke-linecap="round" stroke-linejoin="round"/>
<path d="M555.88 173.123H495.899C492.252 173.123 489.295 170.293 489.295 166.802V22.7571C489.295 19.2664 492.252 16.436 495.899 16.436H555.88V173.123Z" fill="#40B5A8" stroke="black" stroke-miterlimit="10" stroke-linecap="round" stroke-linejoin="round"/>
<path d="M498.526 30.7935H548.029" stroke="black" stroke-miterlimit="10" stroke-linecap="round" stroke-linejoin="round"/>
<path d="M547.355 49.3862H497.028" stroke="black" stroke-miterlimit="10" stroke-linecap="round" stroke-linejoin="round"/>
<path d="M495.263 83.1914H529.697" stroke="black" stroke-miterlimit="10" stroke-linecap="round" stroke-linejoin="round"/>
<path d="M535.877 83.1914H547.355" stroke="black" stroke-miterlimit="10" stroke-linecap="round" stroke-linejoin="round"/>
</svg>
