<svg width="41" height="1" viewBox="0 0 41 38" fill="none" xmlns="http://www.w3.org/2000/svg">
<path d="M13.7451 27.7326C13.7451 27.7326 6.95305 26.1076 4.91557 26.7568C2.87809 27.4074 6.2675 29.711 6.2675 29.711C6.2675 29.711 4.57721 30.6573 3.55774 32.9314C2.53973 35.207 6.94128 34.2269 6.94128 34.2269C6.94128 34.2269 5.59521 35.8576 6.95304 37.1573C8.31087 38.457 14.4233 31.957 14.4233 31.957C14.4233 31.957 18.8381 34.5578 22.913 34.2326C26.988 33.9073 29.3653 32.9329 32.081 29.0323C34.7966 25.1318 36.8356 23.1815 36.8356 23.1815L39.5527 22.2057L35.4777 19.9302C35.4777 19.9302 32.0824 17.0055 28.6856 17.3293C25.2903 17.6546 23.931 18.6291 23.931 18.6291C23.931 18.6291 21.8936 13.4288 18.8381 11.4786C15.7826 9.5283 6.27339 6.92747 3.21791 5.30249C0.162425 3.67751 0.840609 6.27692 1.86008 7.90331C2.87809 9.52829 5.93504 10.828 7.29287 11.4786C8.6507 12.1291 0.162426 12.453 1.52025 14.0794C2.87808 15.7044 7.97253 16.3549 7.97253 16.3549C7.97253 16.3549 3.21792 17.9799 4.23739 19.2796C5.25687 20.5793 9.33034 20.5793 9.33034 20.5793C9.33034 20.5793 7.97252 23.8293 10.01 23.8293C12.0475 23.8293 12.0475 23.8293 12.0475 23.8293C12.0475 23.8293 11.0295 28.3832 13.7451 27.7326Z" fill="#92E3A9" fill-opacity="1" stroke="#263238" stroke-opacity="1" stroke-miterlimit="10" stroke-linecap="round" stroke-linejoin="round"/>
<path d="M23.9326 18.6318C23.9326 18.6318 26.6497 13.4316 25.2904 10.1816C23.9325 6.93165 11.3678 -1.51996 11.7077 1.73142C12.0475 4.98139 15.4428 6.93165 15.4428 6.93165C15.4428 6.93165 10.3499 5.30666 10.3499 6.60637C10.3499 7.90607 10.3499 7.90607 10.3499 7.90607C10.3499 7.90607 16.1225 9.20578 18.8396 11.4813C21.5552 13.7555 23.9326 18.6318 23.9326 18.6318Z" fill="#263238" fill-opacity="1" stroke="#263238" stroke-opacity="1" stroke-miterlimit="10" stroke-linecap="round" stroke-linejoin="round"/>
<path d="M30.8689 21.1637C30.8689 21.6988 31.322 22.1311 31.8795 22.1311C32.4386 22.1311 32.8902 21.6974 32.8902 21.1637C32.8902 20.6286 32.4371 20.1963 31.8795 20.1963C31.322 20.1963 30.8689 20.63 30.8689 21.1637Z" fill="#263238" fill-opacity="1"/>
<path d="M18.2409 31.0979C18.8514 33.0693 22.0893 33.8874 25.4729 32.9271C28.8549 31.9654 31.1028 29.5898 30.4908 27.6185C29.8803 25.6471 26.6424 24.8289 23.2589 25.7893C19.8768 26.7496 17.6304 29.1266 18.2409 31.0979Z" fill="white" fill-opacity="1" stroke="#263238" stroke-opacity="1" stroke-width="0.5" stroke-miterlimit="10" stroke-linecap="round" stroke-linejoin="round"/>
</svg>
