<svg width="83" height="110" viewBox="0 0 83 110" fill="none" xmlns="http://www.w3.org/2000/svg">
<path d="M66.2448 86.3842C66.2448 86.3842 52.818 65.948 28.4845 53.869C4.15094 41.7915 -6.22476 29.8646 6.4032 30.5757C21.7247 31.4389 56.4237 43.0841 72.1954 84.0621C79.0007 101.744 66.2448 86.3842 66.2448 86.3842Z" fill="#40B5A8" stroke="black" stroke-miterlimit="10" stroke-linecap="round" stroke-linejoin="round"/>
<path d="M65.4357 81.0448C65.4357 81.0448 53.2682 57.7515 30.2866 46.5371" stroke="black" stroke-miterlimit="10" stroke-linecap="round" stroke-linejoin="round"/>
<path d="M80.8777 100.515C80.8777 100.515 73.203 79.969 77.8266 56.67C82.4503 33.3725 79.3904 19.6545 72.8661 28.6412C64.9501 39.5458 54.2169 69.653 75.8318 103.267C85.1571 117.77 80.8777 100.515 80.8777 100.515Z" fill="#40B5A8" stroke="black" stroke-miterlimit="10" stroke-linecap="round" stroke-linejoin="round"/>
<path d="M77.3646 96.9835C77.3646 96.9835 66.8668 75.6982 71.3757 53.8018" stroke="black" stroke-miterlimit="10" stroke-linecap="round" stroke-linejoin="round"/>
<path d="M67.239 76.1078C67.239 76.1078 59.5643 55.5618 64.1879 32.2628C68.8116 8.9653 65.7517 -4.75274 59.2274 4.23396C51.3114 15.1371 40.5782 45.2458 62.1931 78.8593C71.5185 93.363 67.239 76.1078 67.239 76.1078Z" fill="#40B5A8" stroke="black" stroke-miterlimit="10" stroke-linecap="round" stroke-linejoin="round"/>
<path d="M65.4357 81.0448C65.4357 81.0448 53.2284 51.291 57.7374 29.3945" stroke="black" stroke-miterlimit="10" stroke-linecap="round" stroke-linejoin="round"/>
</svg>
