<svg width="83" height="110" viewBox="0 0 83 110" fill="none" xmlns="http://www.w3.org/2000/svg">
<path d="M16.704 85.93C16.704 85.93 30.1307 65.4938 54.4643 53.4148C78.7992 41.3373 89.1734 29.4118 76.5455 30.1215C61.2239 30.9847 26.525 42.6299 10.7519 83.6079C3.948 101.29 16.704 85.93 16.704 85.93Z" fill="#40B5A8" stroke="black" stroke-miterlimit="10" stroke-linecap="round" stroke-linejoin="round"/>
<path d="M17.5132 80.5902C17.5132 80.5902 29.6807 57.2969 52.6623 46.0825" stroke="black" stroke-miterlimit="10" stroke-linecap="round" stroke-linejoin="round"/>
<path d="M2.07046 100.06C2.07046 100.06 9.74522 79.513 5.12154 56.2155C0.49786 32.9179 3.55777 19.1999 10.0821 28.1866C17.9981 39.0898 28.7313 69.1984 7.11634 102.812C-2.20899 117.316 2.07046 100.06 2.07046 100.06Z" fill="#40B5A8" stroke="black" stroke-miterlimit="10" stroke-linecap="round" stroke-linejoin="round"/>
<path d="M5.5835 96.5289C5.5835 96.5289 16.0813 75.2436 11.5724 53.3472" stroke="black" stroke-miterlimit="10" stroke-linecap="round" stroke-linejoin="round"/>
<path d="M15.7091 75.6532C15.7091 75.6532 23.3839 55.1058 18.7602 31.8082C14.1365 8.51069 17.1964 -5.20733 23.7208 3.77937C31.6368 14.6839 42.37 44.7912 20.755 78.4047C11.4297 92.9084 15.7091 75.6532 15.7091 75.6532Z" fill="#40B5A8" stroke="black" stroke-miterlimit="10" stroke-linecap="round" stroke-linejoin="round"/>
<path d="M17.5127 80.5902C17.5127 80.5902 29.7199 50.8364 25.211 28.9399" stroke="black" stroke-miterlimit="10" stroke-linecap="round" stroke-linejoin="round"/>
</svg>
