<svg width="510" height="167" viewBox="0 0 510 167" fill="none" xmlns="http://www.w3.org/2000/svg">
<path d="M508.756 34.1434L464.116 22.5714C464.116 22.5714 432.496 -1.46399 394.365 1.20723C356.235 3.87846 321.825 18.1217 310.665 26.1326C299.505 34.1448 285.554 42.1557 282.765 43.937C279.975 45.7169 241.845 35.9247 221.385 43.937C200.925 51.9493 185.115 67.9724 185.115 67.9724C185.115 67.9724 98.6242 43.047 77.2344 39.4859C55.8446 35.9247 30.7343 37.706 13.0634 50.1679C-4.6075 62.6299 -0.887082 70.6422 8.41323 72.4235C17.7136 74.2033 19.573 65.3026 70.7233 78.6545C121.874 92.0078 184.184 126.725 209.294 140.079C234.404 153.432 276.254 172.126 304.155 164.114C332.055 156.102 408.317 128.507 425.986 128.507C443.655 128.507 500.387 132.068 500.387 132.068L508.756 34.1434Z" fill="#D4DED8" stroke="black" stroke-miterlimit="10" stroke-linecap="round" stroke-linejoin="round"/>
</svg>
