<svg width="297" height="44" viewBox="0 0 297 44" fill="none" xmlns="http://www.w3.org/2000/svg">
<g opacity="0.05">
<path d="M118.323 0.500221L103.992 0.750366L104.71 41.9024L119.041 41.6522L118.323 0.500221Z" fill="#C7C7C7"/>
<path d="M132.654 0.2501L118.323 0.500244L119.041 41.6523L133.372 41.4021L132.654 0.2501Z" fill="#263238"/>
<path d="M146.985 -2.29253e-05L132.654 0.250122L133.372 41.4021L147.703 41.152L146.985 -2.29253e-05Z" fill="#C7C7C7"/>
</g>
<g opacity="0.05">
<path d="M63.9379 1.17265L51.9958 1.3811L52.7142 42.5331L64.6562 42.3247L63.9379 1.17265Z" fill="#919191"/>
<path d="M75.8798 0.964158L63.9377 1.17261L64.6561 42.3246L76.5981 42.1162L75.8798 0.964158Z" fill="#263238"/>
<path d="M87.8222 0.755784L75.8801 0.964233L76.5984 42.1162L88.5405 41.9078L87.8222 0.755784Z" fill="#919191"/>
</g>
<g opacity="0.05">
<path d="M11.9421 1.82109L0 2.02954L0.718311 43.1816L12.6604 42.9731L11.9421 1.82109Z" fill="#919191"/>
<path d="M23.8839 1.6126L11.9419 1.82104L12.6602 42.9731L24.6023 42.7646L23.8839 1.6126Z" fill="#263238"/>
<path d="M35.8261 1.40422L23.884 1.61267L24.6023 42.7647L36.5444 42.5562L35.8261 1.40422Z" fill="#919191"/>
</g>
<g opacity="0.05">
<path d="M177.331 0.764381L163 1.01453L163.718 42.1665L178.049 41.9164L177.331 0.764381Z" fill="#C7C7C7"/>
<path d="M191.661 0.514259L177.331 0.764404L178.049 41.9164L192.38 41.6663L191.661 0.514259Z" fill="#263238"/>
<path d="M205.992 0.264138L191.662 0.514282L192.38 41.6663L206.711 41.4162L205.992 0.264138Z" fill="#C7C7C7"/>
</g>
<g opacity="0.05">
<path d="M276.784 15.5133L267.231 15.6801L267.67 40.8283L277.223 40.6615L276.784 15.5133Z" fill="#C7C7C7"/>
<path d="M286.338 15.3466L276.784 15.5133L277.223 40.6615L286.777 40.4948L286.338 15.3466Z" fill="#263238"/>
<path d="M295.892 15.1798L286.339 15.3466L286.778 40.4948L296.331 40.328L295.892 15.1798Z" fill="#C7C7C7"/>
</g>
</svg>
